# xmcd CD database file
#
# Track frame offsets:
#	150
#	21002
#	44045
#	67590
#	93310
#
# Disc length: 1470 seconds
#
# Revision: 0
# Processed by: cddbd v1.4PL0 Copyright (c) Steve Scherf et al.
# Submitted via: CDex 1.50Beta7
#
DISCID=3505bc05
DTITLE=Various Artist - La Havane de légende (musique du Sud)
DYEAR=1900
DGENRE=Salsa
TTITLE0=Irakere - Iya
TTITLE1=Irakere - Xiomara Mayoral
TTITLE2=Irakere - 38 1_2
TTITLE3=Paulo y su Elite - Fatalidad y casualidad
TTITLE4=Irakere - Bacalau con pan
EXTD=
EXTT0=
EXTT1=
EXTT2=
EXTT3=
EXTT4=
PLAYORDER=
